# xmcd
#
# Track frame offsets: 
#        150
#        19292
#        47354
#        64371
#        91071
#        109049
#        128960
#        146656
#        167139
#        190168
#
# Disc length: 2841 seconds
#
# Revision: 1
# Processed by: cddbd v1.5.2PL0 Copyright (c) Steve Scherf et al.
# Submitted via: ExactAudioCopy v0.95a4
#
DISCID=870b170a
DTITLE=Samantha Fish - Runaway
DYEAR=2011
DGENRE=Blues
TTITLE0=Down In The Swamp
TTITLE1=Runaway
TTITLE2=Today's My Day
TTITLE3=Money To Burn
TTITLE4=Leavin' Kind
TTITLE5=Otherside Of The Bottle
TTITLE6=Soft And Slow
TTITLE7=Push Comes To Shove
TTITLE8=Louisiana Rain
TTITLE9=Feelin' Alright
EXTD=Year: 2011\n\n\n\n\n\n                                           
EXTD=      www.samanthafish.com
EXTT0=
EXTT1=
EXTT2=
EXTT3=
EXTT4=
EXTT5=
EXTT6=
EXTT7=
EXTT8=
EXTT9=
PLAYORDER=
